<?xml version="1.0"?>

<!DOCTYPE svg PUBLIC '-//W3C//DTD SVG 1.0//EN' 'http://www.w3.org/TR/2001/REC-SVG-20010904/DTD/svg10.dtd'>
<svg style="fill-opacity:1; color-rendering:auto; color-interpolation:auto; text-rendering:auto; stroke:black; stroke-linecap:square; stroke-miterlimit:10; shape-rendering:auto; stroke-opacity:1; fill:black; stroke-dasharray:none; font-weight:normal; stroke-width:1; font-family:&apos;Dialog&apos;; font-style:normal; stroke-linejoin:miter; font-size:12; stroke-dashoffset:0; image-rendering:auto;" xmlns="http://www.w3.org/2000/svg" width="892" xmlns:xlink="http://www.w3.org/1999/xlink" height="398">
  <!--Generated by the Batik Graphics2D SVG Generator-->
  <defs id="genericDefs" />
  <g>
    <defs id="defs1">
      <clipPath clipPathUnits="userSpaceOnUse" id="clipPath1">
        <path d="M342 82 L364 82 L364 104 L342 104 L342 82 Z" />
      </clipPath>
      <clipPath clipPathUnits="userSpaceOnUse" id="clipPath2">
        <path d="M290 82 L312 82 L312 104 L290 104 L290 82 Z" />
      </clipPath>
      <clipPath clipPathUnits="userSpaceOnUse" id="clipPath3">
        <path d="M260 93 C260 99.0751 255.0751 104 249 104 C242.9249 104 238 99.0751 238 93 C238 86.9249 242.9249 82 249 82 C255.0751 82 260 86.9249 260 93 Z" />
      </clipPath>
      <clipPath clipPathUnits="userSpaceOnUse" id="clipPath4">
        <path d="M208 132 C208 138.0751 203.0751 143 197 143 C190.9249 143 186 138.0751 186 132 C186 125.9249 190.9249 121 197 121 C203.0751 121 208 125.9249 208 132 Z" />
      </clipPath>
      <clipPath clipPathUnits="userSpaceOnUse" id="clipPath5">
        <path d="M134 147 L156 147 L156 169 L134 169 L134 147 Z" />
      </clipPath>
      <clipPath clipPathUnits="userSpaceOnUse" id="clipPath6">
        <path d="M104 158 C104 164.0751 99.0751 169 93 169 C86.9249 169 82 164.0751 82 158 C82 151.9249 86.9249 147 93 147 C99.0751 147 104 151.9249 104 158 Z" />
      </clipPath>
      <clipPath clipPathUnits="userSpaceOnUse" id="clipPath7">
        <path d="M134 95 L156 95 L156 117 L134 117 L134 95 Z" />
      </clipPath>
      <clipPath clipPathUnits="userSpaceOnUse" id="clipPath8">
        <path d="M104 106 C104 112.0751 99.0751 117 93 117 C86.9249 117 82 112.0751 82 106 C82 99.9249 86.9249 95 93 95 C99.0751 95 104 99.9249 104 106 Z" />
      </clipPath>
      <clipPath clipPathUnits="userSpaceOnUse" id="clipPath9">
        <path d="M41 95 L52 106 L41 117 L30 106 Z" style="fill-rule:evenodd;" />
      </clipPath>
      <clipPath clipPathUnits="userSpaceOnUse" id="clipPath10">
        <path d="M208 54 C208 60.0751 203.0751 65 197 65 C190.9249 65 186 60.0751 186 54 C186 47.9249 190.9249 43 197 43 C203.0751 43 208 47.9249 208 54 Z" />
      </clipPath>
      <clipPath clipPathUnits="userSpaceOnUse" id="clipPath11">
        <path d="M134 43 L156 43 L156 65 L134 65 L134 43 Z" />
      </clipPath>
      <clipPath clipPathUnits="userSpaceOnUse" id="clipPath12">
        <path d="M104 54 C104 60.0751 99.0751 65 93 65 C86.9249 65 82 60.0751 82 54 C82 47.9249 86.9249 43 93 43 C99.0751 43 104 47.9249 104 54 Z" />
      </clipPath>
      <clipPath clipPathUnits="userSpaceOnUse" id="clipPath13">
        <path d="M353 52 L342 30 L364 30 Z" style="fill-rule:evenodd;" />
      </clipPath>
    </defs>
    <g>
      <polygon style="fill:none;" points=" 405 93 353 93" />
      <path d="M405 82 C399.5 87.5 410.5 98.5 405 104" style="fill:none;" />
      <polygon style="fill:none;" points=" 353 93 301 93" />
      <polygon style="fill:none;" points=" 353 93 353 41" />
      <rect x="342" y="82" width="22" style="clip-path:url(#clipPath1); fill:white; stroke:none;" height="22" />
      <rect x="342" y="82" width="22" style="clip-path:url(#clipPath1); fill:rgb(0,0,250); stroke:none;" height="22" />
      <rect x="342" y="82" width="22" style="clip-path:url(#clipPath1); fill:none;" height="22" />
      <rect x="342" y="82" width="22" style="fill:none;" height="22" />
      <polygon style="fill:none;" points=" 301 93 249 93" />
      <rect x="290" y="82" width="22" style="clip-path:url(#clipPath2); fill:white; stroke:none;" height="22" />
      <rect x="290" y="82" width="22" style="clip-path:url(#clipPath2); fill:rgb(0,0,250); stroke:none;" height="22" />
      <rect x="290" y="82" width="22" style="clip-path:url(#clipPath2); fill:none;" height="22" />
      <rect x="290" y="82" width="22" style="fill:none;" height="22" />
      <polygon style="fill:none;" points=" 249 93 197 132" />
      <polygon style="fill:none;" points=" 249 93 197 54" />
      <circle style="clip-path:url(#clipPath3); fill:white; stroke:none;" r="11" cx="249" cy="93" />
      <rect x="238" y="82" width="22" style="clip-path:url(#clipPath3); fill:rgb(0,200,50); stroke:none;" height="22" />
      <rect x="238" y="82" width="22" style="clip-path:url(#clipPath3); fill:none;" height="22" />
      <circle r="11" style="fill:none;" cx="249" cy="93" />
      <polygon style="fill:none;" points=" 197 132 145 158" />
      <polygon style="fill:none;" points=" 197 132 145 106" />
      <circle style="clip-path:url(#clipPath4); fill:white; stroke:none;" r="11" cx="197" cy="132" />
      <rect x="186" y="121" width="22" style="clip-path:url(#clipPath4); fill:rgb(0,200,50); stroke:none;" height="22" />
      <rect x="186" y="121" width="22" style="clip-path:url(#clipPath4); fill:none;" height="22" />
      <circle r="11" style="fill:none;" cx="197" cy="132" />
      <polygon style="fill:none;" points=" 145 158 93 158" />
      <rect x="134" y="147" width="22" style="clip-path:url(#clipPath5); fill:white; stroke:none;" height="22" />
      <rect x="134" y="147" width="22" style="clip-path:url(#clipPath5); fill:rgb(0,0,250); stroke:none;" height="22" />
      <rect x="134" y="147" width="22" style="clip-path:url(#clipPath5); fill:none;" height="22" />
      <rect x="134" y="147" width="22" style="fill:none;" height="22" />
      <circle style="clip-path:url(#clipPath6); fill:white; stroke:none;" r="11" cx="93" cy="158" />
      <rect x="82" y="147" width="22" style="clip-path:url(#clipPath6); fill:yellow; stroke:none;" height="22" />
      <rect x="82" y="147" width="22" style="clip-path:url(#clipPath6); fill:none;" height="22" />
      <circle r="11" style="fill:none;" cx="93" cy="158" />
    </g>
    <g style="fill:rgb(0,0,0); fill-opacity:0; font-family:&apos;Serif&apos;; stroke-opacity:0; stroke:rgb(0,0,0);">
      <rect x="123" y="161" width="6" style="stroke:none;" height="9" />
    </g>
    <g style="font-family:&apos;Serif&apos;;">
      <text xml:space="preserve" x="123" y="170" style="stroke:none;">4</text>
    </g>
    <g style="fill:rgb(0,0,0); fill-opacity:0; font-family:&apos;Serif&apos;; stroke-opacity:0; stroke:rgb(0,0,0);">
      <rect x="109" y="160" width="6" style="stroke:none;" height="12" />
    </g>
    <g style="font-family:&apos;Serif&apos;;">
      <text xml:space="preserve" x="109" y="172" style="stroke:none;">?</text>
      <polygon style="fill:none;" points=" 145 106 93 106" />
      <rect x="134" y="95" width="22" style="clip-path:url(#clipPath7); fill:white; stroke:none;" height="22" />
      <rect x="134" y="95" width="22" style="clip-path:url(#clipPath7); fill:rgb(0,0,250); stroke:none;" height="22" />
      <rect x="134" y="95" width="22" style="clip-path:url(#clipPath7); fill:none;" height="22" />
      <rect x="134" y="95" width="22" style="fill:none;" height="22" />
      <polygon style="fill:none;" points=" 93 106 41 106" />
      <circle style="clip-path:url(#clipPath8); fill:white; stroke:none;" r="11" cx="93" cy="106" />
      <rect x="82" y="95" width="22" style="clip-path:url(#clipPath8); fill:yellow; stroke:none;" height="22" />
      <rect x="82" y="95" width="22" style="clip-path:url(#clipPath8); fill:none;" height="22" />
      <circle r="11" style="fill:none;" cx="93" cy="106" />
      <polygon style="fill:white; clip-path:url(#clipPath9); stroke:none;" points=" 41 95 52 106 41 117 30 106" />
      <rect x="30" y="95" width="22" style="clip-path:url(#clipPath9); fill:rgb(233,255,255); stroke:none;" height="22" />
      <rect x="30" y="95" width="22" style="clip-path:url(#clipPath9); fill:none;" height="22" />
      <polygon style="fill:none;" points=" 41 95 52 106 41 117 30 106" />
    </g>
    <g style="fill:rgb(0,0,0); fill-opacity:0; font-family:&apos;Serif&apos;; stroke-opacity:0; stroke:rgb(0,0,0);">
      <rect x="71" y="109" width="5" style="stroke:none;" height="10" />
    </g>
    <g style="font-family:&apos;Serif&apos;;">
      <text xml:space="preserve" x="71" y="119" style="stroke:none;">3</text>
    </g>
    <g style="fill:rgb(0,0,0); fill-opacity:0; font-family:&apos;Serif&apos;; stroke-opacity:0; stroke:rgb(0,0,0);">
      <rect x="56" y="110" width="7" style="stroke:none;" height="7" />
    </g>
    <g style="font-family:&apos;Serif&apos;;">
      <text xml:space="preserve" x="56" y="117" style="stroke:none;">?</text>
    </g>
    <g style="fill:rgb(0,0,0); fill-opacity:0; font-family:&apos;Serif&apos;; stroke-opacity:0; stroke:rgb(0,0,0);">
      <rect x="123" y="109" width="6" style="stroke:none;" height="9" />
    </g>
    <g style="font-family:&apos;Serif&apos;;">
      <text xml:space="preserve" x="123" y="118" style="stroke:none;">4</text>
    </g>
    <g style="fill:rgb(0,0,0); fill-opacity:0; font-family:&apos;Serif&apos;; stroke-opacity:0; stroke:rgb(0,0,0);">
      <rect x="109" y="108" width="6" style="stroke:none;" height="12" />
    </g>
    <g style="font-family:&apos;Serif&apos;;">
      <text xml:space="preserve" x="109" y="120" style="stroke:none;">?</text>
    </g>
    <g style="fill:rgb(0,0,0); fill-opacity:0; font-family:&apos;Serif&apos;; stroke-opacity:0; stroke:rgb(0,0,0);">
      <rect x="179" y="143" width="6" style="stroke:none;" height="9" />
    </g>
    <g style="font-family:&apos;Serif&apos;;">
      <text xml:space="preserve" x="179" y="152" style="stroke:none;">2</text>
    </g>
    <g style="fill:rgb(0,0,0); fill-opacity:0; font-family:&apos;Serif&apos;; stroke-opacity:0; stroke:rgb(0,0,0);">
      <rect x="163" y="150" width="6" style="stroke:none;" height="12" />
    </g>
    <g style="font-family:&apos;Serif&apos;;">
      <text xml:space="preserve" x="163" y="162" style="stroke:none;">?</text>
    </g>
    <g style="fill:rgb(0,0,0); fill-opacity:0; font-family:&apos;Serif&apos;; stroke-opacity:0; stroke:rgb(0,0,0);">
      <rect x="172" y="125" width="6" style="stroke:none;" height="9" />
    </g>
    <g style="font-family:&apos;Serif&apos;;">
      <text xml:space="preserve" x="172" y="134" style="stroke:none;">4</text>
    </g>
    <g style="fill:rgb(0,0,0); fill-opacity:0; font-family:&apos;Serif&apos;; stroke-opacity:0; stroke:rgb(0,0,0);">
      <rect x="156" y="116" width="6" style="stroke:none;" height="12" />
    </g>
    <g style="font-family:&apos;Serif&apos;;">
      <text xml:space="preserve" x="156" y="128" style="stroke:none;">?</text>
      <polygon style="fill:none;" points=" 197 54 145 54" />
      <circle style="clip-path:url(#clipPath10); fill:white; stroke:none;" r="11" cx="197" cy="54" />
      <rect x="186" y="43" width="22" style="clip-path:url(#clipPath10); fill:rgb(0,200,50); stroke:none;" height="22" />
      <rect x="186" y="43" width="22" style="clip-path:url(#clipPath10); fill:none;" height="22" />
      <circle r="11" style="fill:none;" cx="197" cy="54" />
      <polygon style="fill:none;" points=" 145 54 93 54" />
      <rect x="134" y="43" width="22" style="clip-path:url(#clipPath11); fill:white; stroke:none;" height="22" />
      <rect x="134" y="43" width="22" style="clip-path:url(#clipPath11); fill:rgb(0,0,250); stroke:none;" height="22" />
      <rect x="134" y="43" width="22" style="clip-path:url(#clipPath11); fill:none;" height="22" />
      <rect x="134" y="43" width="22" style="fill:none;" height="22" />
      <circle style="clip-path:url(#clipPath12); fill:white; stroke:none;" r="11" cx="93" cy="54" />
      <rect x="82" y="43" width="22" style="clip-path:url(#clipPath12); fill:yellow; stroke:none;" height="22" />
      <rect x="82" y="43" width="22" style="clip-path:url(#clipPath12); fill:none;" height="22" />
      <circle r="11" style="fill:none;" cx="93" cy="54" />
    </g>
    <g style="fill:rgb(0,0,0); fill-opacity:0; font-family:&apos;Serif&apos;; stroke-opacity:0; stroke:rgb(0,0,0);">
      <rect x="123" y="57" width="6" style="stroke:none;" height="9" />
    </g>
    <g style="font-family:&apos;Serif&apos;;">
      <text xml:space="preserve" x="123" y="66" style="stroke:none;">4</text>
    </g>
    <g style="fill:rgb(0,0,0); fill-opacity:0; font-family:&apos;Serif&apos;; stroke-opacity:0; stroke:rgb(0,0,0);">
      <rect x="109" y="56" width="6" style="stroke:none;" height="12" />
    </g>
    <g style="font-family:&apos;Serif&apos;;">
      <text xml:space="preserve" x="109" y="68" style="stroke:none;">?</text>
    </g>
    <g style="fill:rgb(0,0,0); fill-opacity:0; font-family:&apos;Serif&apos;; stroke-opacity:0; stroke:rgb(0,0,0);">
      <rect x="175" y="57" width="6" style="stroke:none;" height="9" />
    </g>
    <g style="font-family:&apos;Serif&apos;;">
      <text xml:space="preserve" x="175" y="66" style="stroke:none;">2</text>
    </g>
    <g style="fill:rgb(0,0,0); fill-opacity:0; font-family:&apos;Serif&apos;; stroke-opacity:0; stroke:rgb(0,0,0);">
      <rect x="161" y="56" width="6" style="stroke:none;" height="12" />
    </g>
    <g style="font-family:&apos;Serif&apos;;">
      <text xml:space="preserve" x="161" y="68" style="stroke:none;">?</text>
    </g>
    <g style="fill:rgb(0,0,0); fill-opacity:0; font-family:&apos;Serif&apos;; stroke-opacity:0; stroke:rgb(0,0,0);">
      <rect x="233" y="107" width="5" style="stroke:none;" height="10" />
    </g>
    <g style="font-family:&apos;Serif&apos;;">
      <text xml:space="preserve" x="233" y="117" style="stroke:none;">3</text>
    </g>
    <g style="fill:rgb(0,0,0); fill-opacity:0; font-family:&apos;Serif&apos;; stroke-opacity:0; stroke:rgb(0,0,0);">
      <rect x="215" y="121" width="7" style="stroke:none;" height="7" />
    </g>
    <g style="font-family:&apos;Serif&apos;;">
      <text xml:space="preserve" x="215" y="128" style="stroke:none;">?</text>
    </g>
    <g style="fill:rgb(0,0,0); fill-opacity:0; font-family:&apos;Serif&apos;; stroke-opacity:0; stroke:rgb(0,0,0);">
      <rect x="223" y="81" width="6" style="stroke:none;" height="10" />
    </g>
    <g style="font-family:&apos;Serif&apos;;">
      <text xml:space="preserve" x="223" y="91" style="stroke:none;">6</text>
    </g>
    <g style="fill:rgb(0,0,0); fill-opacity:0; font-family:&apos;Serif&apos;; stroke-opacity:0; stroke:rgb(0,0,0);">
      <rect x="206" y="69" width="7" style="stroke:none;" height="7" />
    </g>
    <g style="font-family:&apos;Serif&apos;;">
      <text xml:space="preserve" x="206" y="76" style="stroke:none;">?</text>
    </g>
    <g style="fill:rgb(0,0,0); fill-opacity:0; font-family:&apos;Serif&apos;; stroke-opacity:0; stroke:rgb(0,0,0);">
      <rect x="279" y="96" width="6" style="stroke:none;" height="9" />
    </g>
    <g style="font-family:&apos;Serif&apos;;">
      <text xml:space="preserve" x="279" y="105" style="stroke:none;">4</text>
    </g>
    <g style="fill:rgb(0,0,0); fill-opacity:0; font-family:&apos;Serif&apos;; stroke-opacity:0; stroke:rgb(0,0,0);">
      <rect x="265" y="95" width="6" style="stroke:none;" height="12" />
    </g>
    <g style="font-family:&apos;Serif&apos;;">
      <text xml:space="preserve" x="265" y="107" style="stroke:none;">?</text>
      <polygon style="fill:white; clip-path:url(#clipPath13); stroke:none;" points=" 353 52 342 30 364 30" />
      <rect x="342" y="30" width="22" style="clip-path:url(#clipPath13); fill:rgb(250,0,0); stroke:none;" height="22" />
      <rect x="342" y="30" width="22" style="clip-path:url(#clipPath13); fill:none;" height="22" />
      <polygon style="fill:none;" points=" 353 52 342 30 364 30" />
    </g>
    <g style="fill:rgb(0,0,0); fill-opacity:0; font-family:&apos;Serif&apos;; stroke-opacity:0; stroke:rgb(0,0,0);">
      <rect x="331" y="96" width="6" style="stroke:none;" height="9" />
    </g>
    <g style="font-family:&apos;Serif&apos;;">
      <text xml:space="preserve" x="331" y="105" style="stroke:none;">4</text>
    </g>
    <g style="fill:rgb(0,0,0); fill-opacity:0; font-family:&apos;Serif&apos;; stroke-opacity:0; stroke:rgb(0,0,0);">
      <rect x="317" y="95" width="6" style="stroke:none;" height="12" />
    </g>
    <g style="font-family:&apos;Serif&apos;;">
      <text xml:space="preserve" x="317" y="107" style="stroke:none;">?</text>
    </g>
    <g style="fill:rgb(0,0,0); fill-opacity:0; font-family:&apos;Serif&apos;; stroke-opacity:0; stroke:rgb(0,0,0);">
      <rect x="342" y="69" width="6" style="stroke:none;" height="10" />
    </g>
    <g style="font-family:&apos;Serif&apos;;">
      <text xml:space="preserve" x="342" y="79" style="stroke:none;">6</text>
    </g>
    <g style="fill:rgb(0,0,0); fill-opacity:0; font-family:&apos;Serif&apos;; stroke-opacity:0; stroke:rgb(0,0,0);">
      <rect x="341" y="56" width="7" style="stroke:none;" height="7" />
    </g>
    <g style="font-family:&apos;Serif&apos;;">
      <text xml:space="preserve" x="341" y="63" style="stroke:none;">?</text>
    </g>
    <g style="fill:rgb(0,0,0); fill-opacity:0; font-family:&apos;Serif&apos;; stroke-opacity:0; stroke:rgb(0,0,0);">
      <rect x="369" y="95" width="6" style="stroke:none;" height="12" />
    </g>
    <g style="font-family:&apos;Serif&apos;;">
      <text xml:space="preserve" x="369" y="107" style="stroke:none;">?</text>
    </g>
  </g>
</svg>
