
<!--    <svg viewbox="0 0 400 860" xmlns="http://www.w3.org/2000/svg">-->
 <svg viewbox="400 0 860 400" xmlns="http://www.w3.org/2000/svg">

<desc value="0" id="extFlag"/>
       
<line class="bond" stroke="black" x1="780" y1="220" x2="720" y2="220" bondIndex="1"></line>
<text class="sText" text-anchor="middle" dominant-baseline="central" x="750" y="210" textIndex="1">&#x3b2;4</text>
<line class="bond" stroke="black" x1="720" y1="220" x2="660" y2="220" bondIndex="2"></line>
<text class="sText" text-anchor="middle" dominant-baseline="central" x="690" y="210" textIndex="2">&#x3b2;4</text>
<line class="bond" stroke="black" x1="660" y1="220" x2="600" y2="295" bondIndex="3"></line>
<text class="sText" text-anchor="middle" dominant-baseline="central" x="621" y="251.5" textIndex="3">&#x3b1;3</text>
<line class="bond" stroke="black" x1="600" y1="295" x2="540" y2="320" bondIndex="4"></line>
<text class="sText" text-anchor="middle" dominant-baseline="central" x="565" y="298.5" textIndex="4">&#x3b2;2</text>
<line class="bond" stroke="black" x1="540" y1="320" x2="480" y2="320" bondIndex="5"></line>
<text class="sText" text-anchor="middle" dominant-baseline="central" x="510" y="310" textIndex="5">&#x3b2;4</text>
<line class="bond" stroke="black" x1="600" y1="295" x2="540" y2="270" bondIndex="6"></line>
<text class="sText" text-anchor="middle" dominant-baseline="central" x="575" y="273.5" textIndex="6">&#x3b2;4</text>
<line class="bond" stroke="black" x1="540" y1="270" x2="480" y2="270" bondIndex="7"></line>
<text class="sText" text-anchor="middle" dominant-baseline="central" x="510" y="260" textIndex="7">&#x3b2;4</text>
<line class="bond" stroke="black" x1="660" y1="220" x2="600" y2="145" bondIndex="8"></line>
<text class="sText" text-anchor="middle" dominant-baseline="central" x="639" y="176.5" textIndex="8">&#x3b1;6</text>
<line class="bond" stroke="black" x1="600" y1="145" x2="540" y2="170" bondIndex="9"></line>
<text class="sText" text-anchor="middle" dominant-baseline="central" x="565" y="148.5" textIndex="9">&#x3b2;2</text>
<line class="bond" stroke="black" x1="540" y1="170" x2="540" y2="220" bondIndex="10"></line>
<text class="sText" text-anchor="middle" dominant-baseline="central" x="528" y="195" textIndex="10">&#x3b1;3</text>
<line class="bond" stroke="black" x1="540" y1="170" x2="480" y2="170" bondIndex="11"></line>
<text class="sText" text-anchor="middle" dominant-baseline="central" x="510" y="160" textIndex="11">&#x3b2;4</text>
<line class="bond" stroke="black" x1="600" y1="145" x2="540" y2="120" bondIndex="12"></line>
<text class="sText" text-anchor="middle" dominant-baseline="central" x="575" y="123.5" textIndex="12">&#x3b2;6</text>
<line class="bond" stroke="black" x1="540" y1="120" x2="480" y2="120" bondIndex="13"></line>
<text class="sText" text-anchor="middle" dominant-baseline="central" x="510" y="110" textIndex="13">&#x3b2;4</text>
<rect class="sugar" width="24" height="24" x="768" y="208" fill="#0090BC" stroke="black" sugarName="GlcNAc" nodeIndex="0"></rect>
<rect class="sugar" width="24" height="24" x="708" y="208" fill="#0090BC" stroke="black" sugarName="GlcNAc" nodeIndex="1"></rect>
<circle class="sugar" r="12" cx="660" cy="220" fill="#00A651" stroke="black" sugarName="Man" nodeIndex="2"></circle>
<circle class="sugar" r="12" cx="600" cy="295" fill="#00A651" stroke="black" sugarName="Man" nodeIndex="3"></circle>
<rect class="sugar" width="24" height="24" x="528" y="308" fill="#0090BC" stroke="black" sugarName="GlcNAc" nodeIndex="4"></rect>

<rect class="sugar" width="24" height="24" x="528" y="258" fill="#0090BC" stroke="black" sugarName="GlcNAc" nodeIndex="6"></rect>

<circle class="sugar" r="12" cx="600" cy="145" fill="#00A651" stroke="black" sugarName="Man" nodeIndex="8"></circle>
<rect class="sugar" width="24" height="24" x="528" y="158" fill="#0090BC" stroke="black" sugarName="GlcNAc" nodeIndex="9"></rect>willie5151        
<polygon class="sugar" points="528,232 552,232 540,208" fill="#ED1C24" stroke="black" sugarName="Fuc" nodeIndex="10"></polygon>

<rect class="sugar" width="24" height="24" x="528" y="108" fill="#0090BC" stroke="black" sugarName="GlcNAc" nodeIndex="12"></rect>
<g id="yCircle">  
    <circle class="sugar yCircle" r="12" cx="480" cy="320" fill="#FFD400" stroke="black" sugarName="Gal" nodeIndex="5"></circle> 
    <circle class="sugar yCircle" r="12" cx="480" cy="270" fill="#FFD400" stroke="black" sugarName="Gal" nodeIndex="7"></circle> 
     <circle class="sugar yCircle" r="12" cx="480" cy="170" fill="#FFD400" stroke="black" sugarName="Gal" nodeIndex="11"></circle>
     <circle class="sugar yCircle" r="12" cx="480" cy="120" fill="#FFD400" stroke="black" sugarName="Gal" nodeIndex="13"></circle>
</g>

</svg>
