<svg viewbox = "0 0 525 225" xmlns="http://www.w3.org/2000/svg"><line stroke ="black" x1 = "487.5" y1 = "112.5" x2 = "412.5" y2 = "112.5" nodeIndex="1"></line><text text-anchor = "middle" dominant-baseline = "central" x = "450" y = "104.5" >b4</text><line stroke ="black" x1 = "412.5" y1 = "112.5" x2 = "337.5" y2 = "112.5" nodeIndex="1"></line><text text-anchor = "middle" dominant-baseline = "central" x = "375" y = "104.5" >b4</text><line stroke ="black" x1 = "337.5" y1 = "112.5" x2 = "262.5" y2 = "37.5" nodeIndex="1"></line><text text-anchor = "middle" dominant-baseline = "central" x = "308" y = "67" >a6</text><line stroke ="black" x1 = "262.5" y1 = "37.5" x2 = "187.5" y2 = "37.5" nodeIndex="1"></line><text text-anchor = "middle" dominant-baseline = "central" x = "225" y = "29.5" >b2</text><line stroke ="black" x1 = "187.5" y1 = "37.5" x2 = "112.5" y2 = "37.5" nodeIndex="1"></line><text text-anchor = "middle" dominant-baseline = "central" x = "150" y = "29.5" >b4</text><line stroke ="black" x1 = "337.5" y1 = "112.5" x2 = "262.5" y2 = "187.5" nodeIndex="1"></line><text text-anchor = "middle" dominant-baseline = "central" x = "308" y = "158" >a3</text><line stroke ="black" x1 = "262.5" y1 = "187.5" x2 = "187.5" y2 = "187.5" nodeIndex="1"></line><text text-anchor = "middle" dominant-baseline = "central" x = "225" y = "179.5" >b2</text><line stroke ="black" x1 = "187.5" y1 = "187.5" x2 = "112.5" y2 = "187.5" nodeIndex="1"></line><text text-anchor = "middle" dominant-baseline = "central" x = "150" y = "179.5" >b4</text><line stroke ="black" x1 = "112.5" y1 = "187.5" x2 = "37.5" y2 = "187.5" nodeIndex="1"></line><text text-anchor = "middle" dominant-baseline = "central" x = "75" y = "179.5" >a6</text><rect x = "472.5" y = "97.5" width = "30" height = "30" stroke = "black" stroke-width = "1.5" fill = "rgb(0, 144, 188)"/><rect x = "397.5" y = "97.5" width = "30" height = "30" stroke = "black" stroke-width = "1.5" fill = "rgb(0, 144, 188)"/><circle cx = "337.5 " cy = " 112.5" r = " 15 " stroke-width = " 1.5 " stroke = "black" fill = " rgb(0, 166, 81) "/><circle cx = "262.5 " cy = " 37.5" r = " 15 " stroke-width = " 1.5 " stroke = "black" fill = " rgb(0, 166, 81) "/><rect x = "172.5" y = "22.5" width = "30" height = "30" stroke = "black" stroke-width = "1.5" fill = "rgb(0, 144, 188)"/><circle cx = "112.5 " cy = " 37.5" r = " 15 " stroke-width = " 1.5 " stroke = "black" fill = " rgb(255, 212, 0) "/><circle cx = "262.5 " cy = " 187.5" r = " 15 " stroke-width = " 1.5 " stroke = "black" fill = " rgb(0, 166, 81) "/><rect x = "172.5" y = "172.5" width = "30" height = "30" stroke = "black" stroke-width = "1.5" fill = "rgb(0, 144, 188)"/><circle cx = "112.5 " cy = " 187.5" r = " 15 " stroke-width = " 1.5 " stroke = "black" fill = " rgb(255, 212, 0) "/><polygon points = "37.5,202.5,52.5,187.5,37.5,172.5,22.5,187.5" stroke = "black" stroke-width = "1.5" fill = "rgb(143, 204, 233)"/></svg>