<svg viewbox = "0 0 450 525" xmlns="http://www.w3.org/2000/svg"><line stroke ="black" x1 = "412.5" y1 = "262.5" x2 = "337.5" y2 = "37.5" nodeIndex="1"></line><text text-anchor = "middle" dominant-baseline = "central" x = "383" y = "142" >a6</text><line stroke ="black" x1 = "412.5" y1 = "262.5" x2 = "337.5" y2 = "412.5" nodeIndex="1"></line><text text-anchor = "middle" dominant-baseline = "central" x = "383" y = "345.5" >b4</text><line stroke ="black" x1 = "337.5" y1 = "412.5" x2 = "262.5" y2 = "412.5" nodeIndex="1"></line><text text-anchor = "middle" dominant-baseline = "central" x = "300" y = "404.5" >b4</text><line stroke ="black" x1 = "262.5" y1 = "412.5" x2 = "187.5" y2 = "262.5" nodeIndex="1"></line><text text-anchor = "middle" dominant-baseline = "central" x = "233" y = "329.5" >a6</text><line stroke ="black" x1 = "187.5" y1 = "262.5" x2 = "112.5" y2 = "187.5" nodeIndex="1"></line><text text-anchor = "middle" dominant-baseline = "central" x = "158" y = "217" >b6</text><line stroke ="black" x1 = "112.5" y1 = "187.5" x2 = "37.5" y2 = "187.5" nodeIndex="1"></line><text text-anchor = "middle" dominant-baseline = "central" x = "75" y = "179.5" >b4</text><line stroke ="black" x1 = "187.5" y1 = "262.5" x2 = "112.5" y2 = "337.5" nodeIndex="1"></line><text text-anchor = "middle" dominant-baseline = "central" x = "158" y = "308" >b2</text><line stroke ="black" x1 = "112.5" y1 = "337.5" x2 = "37.5" y2 = "337.5" nodeIndex="1"></line><text text-anchor = "middle" dominant-baseline = "central" x = "75" y = "329.5" >b4</text><line stroke ="black" x1 = "262.5" y1 = "412.5" x2 = "187.5" y2 = "487.5" nodeIndex="1"></line><text text-anchor = "middle" dominant-baseline = "central" x = "233" y = "458" >a3</text><rect x = "397.5" y = "247.5" width = "30" height = "30" stroke = "black" stroke-width = "1.5" fill = "rgb(0, 144, 188)"/><polygon points = "337.5,22.5,322.5,52.5,352.5,52.5" stroke = "black" stroke-width = "1.5" fill = "rgb(237, 28, 36)"/><rect x = "322.5" y = "397.5" width = "30" height = "30" stroke = "black" stroke-width = "1.5" fill = "rgb(0, 144, 188)"/><circle cx = "262.5 " cy = " 412.5" r = " 15 " stroke-width = " 1.5 " stroke = "black" fill = " rgb(0, 166, 81) "/><circle cx = "187.5 " cy = " 262.5" r = " 15 " stroke-width = " 1.5 " stroke = "black" fill = " rgb(0, 166, 81) "/><rect x = "97.5" y = "172.5" width = "30" height = "30" stroke = "black" stroke-width = "1.5" fill = "rgb(0, 144, 188)"/><rect x = "22.5" y = "172.5" width = "30" height = "30" stroke = "black" stroke-width = "1.5" fill = "rgb(255, 212, 0)"/><rect x = "97.5" y = "322.5" width = "30" height = "30" stroke = "black" stroke-width = "1.5" fill = "rgb(0, 144, 188)"/><rect x = "22.5" y = "322.5" width = "30" height = "30" stroke = "black" stroke-width = "1.5" fill = "rgb(255, 212, 0)"/><circle cx = "187.5 " cy = " 487.5" r = " 15 " stroke-width = " 1.5 " stroke = "black" fill = " rgb(0, 166, 81) "/></svg>
