<?xml version="1.0"?>

<!DOCTYPE svg PUBLIC '-//W3C//DTD SVG 1.0//EN' 'http://www.w3.org/TR/2001/REC-SVG-20010904/DTD/svg10.dtd'>
<svg style="fill-opacity:1; color-rendering:auto; color-interpolation:auto; text-rendering:auto; stroke:black; stroke-linecap:square; stroke-miterlimit:10; shape-rendering:auto; stroke-opacity:1; fill:black; stroke-dasharray:none; font-weight:normal; stroke-width:1; font-family:&apos;Dialog&apos;; font-style:normal; stroke-linejoin:miter; font-size:12; stroke-dashoffset:0; image-rendering:auto;" xmlns="http://www.w3.org/2000/svg" width="892" xmlns:xlink="http://www.w3.org/1999/xlink" height="372">
  <!--Generated by the Batik Graphics2D SVG Generator-->
  <defs id="genericDefs" />
  <g>
    <defs id="defs1">
      <clipPath clipPathUnits="userSpaceOnUse" id="clipPath1">
        <path d="M342 95 L364 95 L364 117 L342 117 L342 95 Z" />
      </clipPath>
      <clipPath clipPathUnits="userSpaceOnUse" id="clipPath2">
        <path d="M290 95 L312 95 L312 117 L290 117 L290 95 Z" />
      </clipPath>
      <clipPath clipPathUnits="userSpaceOnUse" id="clipPath3">
        <path d="M260 106 C260 112.0751 255.0751 117 249 117 C242.9249 117 238 112.0751 238 106 C238 99.9249 242.9249 95 249 95 C255.0751 95 260 99.9249 260 106 Z" />
      </clipPath>
      <clipPath clipPathUnits="userSpaceOnUse" id="clipPath4">
        <path d="M208 145 C208 151.0751 203.0751 156 197 156 C190.9249 156 186 151.0751 186 145 C186 138.9249 190.9249 134 197 134 C203.0751 134 208 138.9249 208 145 Z" />
      </clipPath>
      <clipPath clipPathUnits="userSpaceOnUse" id="clipPath5">
        <path d="M134 134 L156 134 L156 156 L134 156 L134 134 Z" />
      </clipPath>
      <clipPath clipPathUnits="userSpaceOnUse" id="clipPath6">
        <path d="M104 145 C104 151.0751 99.0751 156 93 156 C86.9249 156 82 151.0751 82 145 C82 138.9249 86.9249 134 93 134 C99.0751 134 104 138.9249 104 145 Z" />
      </clipPath>
      <clipPath clipPathUnits="userSpaceOnUse" id="clipPath7">
        <path d="M41 134 L52 145 L41 156 L30 145 Z" style="fill-rule:evenodd;" />
      </clipPath>
      <clipPath clipPathUnits="userSpaceOnUse" id="clipPath8">
        <path d="M208 67 C208 73.0751 203.0751 78 197 78 C190.9249 78 186 73.0751 186 67 C186 60.9249 190.9249 56 197 56 C203.0751 56 208 60.9249 208 67 Z" />
      </clipPath>
      <clipPath clipPathUnits="userSpaceOnUse" id="clipPath9">
        <path d="M134 82 L156 82 L156 104 L134 104 L134 82 Z" />
      </clipPath>
      <clipPath clipPathUnits="userSpaceOnUse" id="clipPath10">
        <path d="M104 93 C104 99.0751 99.0751 104 93 104 C86.9249 104 82 99.0751 82 93 C82 86.9249 86.9249 82 93 82 C99.0751 82 104 86.9249 104 93 Z" />
      </clipPath>
      <clipPath clipPathUnits="userSpaceOnUse" id="clipPath11">
        <path d="M41 82 L52 93 L41 104 L30 93 Z" style="fill-rule:evenodd;" />
      </clipPath>
      <clipPath clipPathUnits="userSpaceOnUse" id="clipPath12">
        <path d="M134 30 L156 30 L156 52 L134 52 L134 30 Z" />
      </clipPath>
      <clipPath clipPathUnits="userSpaceOnUse" id="clipPath13">
        <path d="M104 41 C104 47.0751 99.0751 52 93 52 C86.9249 52 82 47.0751 82 41 C82 34.9249 86.9249 30 93 30 C99.0751 30 104 34.9249 104 41 Z" />
      </clipPath>
      <clipPath clipPathUnits="userSpaceOnUse" id="clipPath14">
        <path d="M41 30 L52 41 L41 52 L30 41 Z" style="fill-rule:evenodd;" />
      </clipPath>
      <clipPath clipPathUnits="userSpaceOnUse" id="clipPath15">
        <path d="M353 65 L342 43 L364 43 Z" style="fill-rule:evenodd;" />
      </clipPath>
    </defs>
    <g>
      <polygon style="fill:none;" points=" 405 106 353 106" />
      <path d="M405 95 C399.5 100.5 410.5 111.5 405 117" style="fill:none;" />
      <polygon style="fill:none;" points=" 353 106 301 106" />
      <polygon style="fill:none;" points=" 353 106 353 54" />
      <rect x="342" y="95" width="22" style="clip-path:url(#clipPath1); fill:white; stroke:none;" height="22" />
      <rect x="342" y="95" width="22" style="clip-path:url(#clipPath1); fill:rgb(0,0,250); stroke:none;" height="22" />
      <rect x="342" y="95" width="22" style="clip-path:url(#clipPath1); fill:none;" height="22" />
      <rect x="342" y="95" width="22" style="fill:none;" height="22" />
      <polygon style="fill:none;" points=" 301 106 249 106" />
      <rect x="290" y="95" width="22" style="clip-path:url(#clipPath2); fill:white; stroke:none;" height="22" />
      <rect x="290" y="95" width="22" style="clip-path:url(#clipPath2); fill:rgb(0,0,250); stroke:none;" height="22" />
      <rect x="290" y="95" width="22" style="clip-path:url(#clipPath2); fill:none;" height="22" />
      <rect x="290" y="95" width="22" style="fill:none;" height="22" />
      <polygon style="fill:none;" points=" 249 106 197 145" />
      <polygon style="fill:none;" points=" 249 106 197 67" />
      <circle style="clip-path:url(#clipPath3); fill:white; stroke:none;" r="11" cx="249" cy="106" />
      <rect x="238" y="95" width="22" style="clip-path:url(#clipPath3); fill:rgb(0,200,50); stroke:none;" height="22" />
      <rect x="238" y="95" width="22" style="clip-path:url(#clipPath3); fill:none;" height="22" />
      <circle r="11" style="fill:none;" cx="249" cy="106" />
      <polygon style="fill:none;" points=" 197 145 145 145" />
      <circle style="clip-path:url(#clipPath4); fill:white; stroke:none;" r="11" cx="197" cy="145" />
      <rect x="186" y="134" width="22" style="clip-path:url(#clipPath4); fill:rgb(0,200,50); stroke:none;" height="22" />
      <rect x="186" y="134" width="22" style="clip-path:url(#clipPath4); fill:none;" height="22" />
      <circle r="11" style="fill:none;" cx="197" cy="145" />
      <polygon style="fill:none;" points=" 145 145 93 145" />
      <rect x="134" y="134" width="22" style="clip-path:url(#clipPath5); fill:white; stroke:none;" height="22" />
      <rect x="134" y="134" width="22" style="clip-path:url(#clipPath5); fill:rgb(0,0,250); stroke:none;" height="22" />
      <rect x="134" y="134" width="22" style="clip-path:url(#clipPath5); fill:none;" height="22" />
      <rect x="134" y="134" width="22" style="fill:none;" height="22" />
      <polygon style="fill:none;" points=" 93 145 41 145" />
      <circle style="clip-path:url(#clipPath6); fill:white; stroke:none;" r="11" cx="93" cy="145" />
      <rect x="82" y="134" width="22" style="clip-path:url(#clipPath6); fill:yellow; stroke:none;" height="22" />
      <rect x="82" y="134" width="22" style="clip-path:url(#clipPath6); fill:none;" height="22" />
      <circle r="11" style="fill:none;" cx="93" cy="145" />
      <polygon style="fill:white; clip-path:url(#clipPath7); stroke:none;" points=" 41 134 52 145 41 156 30 145" />
      <rect x="30" y="134" width="22" style="clip-path:url(#clipPath7); fill:rgb(200,0,200); stroke:none;" height="22" />
      <rect x="30" y="134" width="22" style="clip-path:url(#clipPath7); fill:none;" height="22" />
      <polygon style="fill:none;" points=" 41 134 52 145 41 156 30 145" />
    </g>
    <g style="fill:rgb(0,0,0); fill-opacity:0; font-family:&apos;Serif&apos;; stroke-opacity:0; stroke:rgb(0,0,0);">
      <rect x="71" y="148" width="5" style="stroke:none;" height="10" />
    </g>
    <g style="font-family:&apos;Serif&apos;;">
      <text xml:space="preserve" x="71" y="158" style="stroke:none;">3</text>
    </g>
    <g style="fill:rgb(0,0,0); fill-opacity:0; font-family:&apos;Serif&apos;; stroke-opacity:0; stroke:rgb(0,0,0);">
      <rect x="56" y="149" width="7" style="stroke:none;" height="7" />
    </g>
    <g style="font-family:&apos;Serif&apos;;">
      <text xml:space="preserve" x="56" y="156" style="stroke:none;">?</text>
    </g>
    <g style="fill:rgb(0,0,0); fill-opacity:0; font-family:&apos;Serif&apos;; stroke-opacity:0; stroke:rgb(0,0,0);">
      <rect x="123" y="148" width="5" style="stroke:none;" height="10" />
    </g>
    <g style="font-family:&apos;Serif&apos;;">
      <text xml:space="preserve" x="123" y="158" style="stroke:none;">3</text>
    </g>
    <g style="fill:rgb(0,0,0); fill-opacity:0; font-family:&apos;Serif&apos;; stroke-opacity:0; stroke:rgb(0,0,0);">
      <rect x="109" y="147" width="6" style="stroke:none;" height="12" />
    </g>
    <g style="font-family:&apos;Serif&apos;;">
      <text xml:space="preserve" x="109" y="159" style="stroke:none;">?</text>
    </g>
    <g style="fill:rgb(0,0,0); fill-opacity:0; font-family:&apos;Serif&apos;; stroke-opacity:0; stroke:rgb(0,0,0);">
      <rect x="175" y="148" width="6" style="stroke:none;" height="9" />
    </g>
    <g style="font-family:&apos;Serif&apos;;">
      <text xml:space="preserve" x="175" y="157" style="stroke:none;">2</text>
    </g>
    <g style="fill:rgb(0,0,0); fill-opacity:0; font-family:&apos;Serif&apos;; stroke-opacity:0; stroke:rgb(0,0,0);">
      <rect x="161" y="147" width="6" style="stroke:none;" height="12" />
    </g>
    <g style="font-family:&apos;Serif&apos;;">
      <text xml:space="preserve" x="161" y="159" style="stroke:none;">?</text>
      <polygon style="fill:none;" points=" 197 67 145 93" />
      <polygon style="fill:none;" points=" 197 67 145 41" />
      <circle style="clip-path:url(#clipPath8); fill:white; stroke:none;" r="11" cx="197" cy="67" />
      <rect x="186" y="56" width="22" style="clip-path:url(#clipPath8); fill:rgb(0,200,50); stroke:none;" height="22" />
      <rect x="186" y="56" width="22" style="clip-path:url(#clipPath8); fill:none;" height="22" />
      <circle r="11" style="fill:none;" cx="197" cy="67" />
      <polygon style="fill:none;" points=" 145 93 93 93" />
      <rect x="134" y="82" width="22" style="clip-path:url(#clipPath9); fill:white; stroke:none;" height="22" />
      <rect x="134" y="82" width="22" style="clip-path:url(#clipPath9); fill:rgb(0,0,250); stroke:none;" height="22" />
      <rect x="134" y="82" width="22" style="clip-path:url(#clipPath9); fill:none;" height="22" />
      <rect x="134" y="82" width="22" style="fill:none;" height="22" />
      <polygon style="fill:none;" points=" 93 93 41 93" />
      <circle style="clip-path:url(#clipPath10); fill:white; stroke:none;" r="11" cx="93" cy="93" />
      <rect x="82" y="82" width="22" style="clip-path:url(#clipPath10); fill:yellow; stroke:none;" height="22" />
      <rect x="82" y="82" width="22" style="clip-path:url(#clipPath10); fill:none;" height="22" />
      <circle r="11" style="fill:none;" cx="93" cy="93" />
      <polygon style="fill:white; clip-path:url(#clipPath11); stroke:none;" points=" 41 82 52 93 41 104 30 93" />
      <rect x="30" y="82" width="22" style="clip-path:url(#clipPath11); fill:rgb(200,0,200); stroke:none;" height="22" />
      <rect x="30" y="82" width="22" style="clip-path:url(#clipPath11); fill:none;" height="22" />
      <polygon style="fill:none;" points=" 41 82 52 93 41 104 30 93" />
    </g>
    <g style="fill:rgb(0,0,0); fill-opacity:0; font-family:&apos;Serif&apos;; stroke-opacity:0; stroke:rgb(0,0,0);">
      <rect x="71" y="96" width="5" style="stroke:none;" height="10" />
    </g>
    <g style="font-family:&apos;Serif&apos;;">
      <text xml:space="preserve" x="71" y="106" style="stroke:none;">3</text>
    </g>
    <g style="fill:rgb(0,0,0); fill-opacity:0; font-family:&apos;Serif&apos;; stroke-opacity:0; stroke:rgb(0,0,0);">
      <rect x="56" y="97" width="7" style="stroke:none;" height="7" />
    </g>
    <g style="font-family:&apos;Serif&apos;;">
      <text xml:space="preserve" x="56" y="104" style="stroke:none;">?</text>
    </g>
    <g style="fill:rgb(0,0,0); fill-opacity:0; font-family:&apos;Serif&apos;; stroke-opacity:0; stroke:rgb(0,0,0);">
      <rect x="123" y="96" width="6" style="stroke:none;" height="9" />
    </g>
    <g style="font-family:&apos;Serif&apos;;">
      <text xml:space="preserve" x="123" y="105" style="stroke:none;">4</text>
    </g>
    <g style="fill:rgb(0,0,0); fill-opacity:0; font-family:&apos;Serif&apos;; stroke-opacity:0; stroke:rgb(0,0,0);">
      <rect x="109" y="95" width="6" style="stroke:none;" height="12" />
    </g>
    <g style="font-family:&apos;Serif&apos;;">
      <text xml:space="preserve" x="109" y="107" style="stroke:none;">?</text>
      <polygon style="fill:none;" points=" 145 41 93 41" />
      <rect x="134" y="30" width="22" style="clip-path:url(#clipPath12); fill:white; stroke:none;" height="22" />
      <rect x="134" y="30" width="22" style="clip-path:url(#clipPath12); fill:rgb(0,0,250); stroke:none;" height="22" />
      <rect x="134" y="30" width="22" style="clip-path:url(#clipPath12); fill:none;" height="22" />
      <rect x="134" y="30" width="22" style="fill:none;" height="22" />
      <polygon style="fill:none;" points=" 93 41 41 41" />
      <circle style="clip-path:url(#clipPath13); fill:white; stroke:none;" r="11" cx="93" cy="41" />
      <rect x="82" y="30" width="22" style="clip-path:url(#clipPath13); fill:yellow; stroke:none;" height="22" />
      <rect x="82" y="30" width="22" style="clip-path:url(#clipPath13); fill:none;" height="22" />
      <circle r="11" style="fill:none;" cx="93" cy="41" />
      <polygon style="fill:white; clip-path:url(#clipPath14); stroke:none;" points=" 41 30 52 41 41 52 30 41" />
      <rect x="30" y="30" width="22" style="clip-path:url(#clipPath14); fill:rgb(200,0,200); stroke:none;" height="22" />
      <rect x="30" y="30" width="22" style="clip-path:url(#clipPath14); fill:none;" height="22" />
      <polygon style="fill:none;" points=" 41 30 52 41 41 52 30 41" />
    </g>
    <g style="fill:rgb(0,0,0); fill-opacity:0; font-family:&apos;Serif&apos;; stroke-opacity:0; stroke:rgb(0,0,0);">
      <rect x="71" y="44" width="5" style="stroke:none;" height="10" />
    </g>
    <g style="font-family:&apos;Serif&apos;;">
      <text xml:space="preserve" x="71" y="54" style="stroke:none;">3</text>
    </g>
    <g style="fill:rgb(0,0,0); fill-opacity:0; font-family:&apos;Serif&apos;; stroke-opacity:0; stroke:rgb(0,0,0);">
      <rect x="56" y="45" width="7" style="stroke:none;" height="7" />
    </g>
    <g style="font-family:&apos;Serif&apos;;">
      <text xml:space="preserve" x="56" y="52" style="stroke:none;">?</text>
    </g>
    <g style="fill:rgb(0,0,0); fill-opacity:0; font-family:&apos;Serif&apos;; stroke-opacity:0; stroke:rgb(0,0,0);">
      <rect x="123" y="44" width="5" style="stroke:none;" height="10" />
    </g>
    <g style="font-family:&apos;Serif&apos;;">
      <text xml:space="preserve" x="123" y="54" style="stroke:none;">3</text>
    </g>
    <g style="fill:rgb(0,0,0); fill-opacity:0; font-family:&apos;Serif&apos;; stroke-opacity:0; stroke:rgb(0,0,0);">
      <rect x="109" y="43" width="6" style="stroke:none;" height="12" />
    </g>
    <g style="font-family:&apos;Serif&apos;;">
      <text xml:space="preserve" x="109" y="55" style="stroke:none;">?</text>
    </g>
    <g style="fill:rgb(0,0,0); fill-opacity:0; font-family:&apos;Serif&apos;; stroke-opacity:0; stroke:rgb(0,0,0);">
      <rect x="179" y="78" width="6" style="stroke:none;" height="9" />
    </g>
    <g style="font-family:&apos;Serif&apos;;">
      <text xml:space="preserve" x="179" y="87" style="stroke:none;">2</text>
    </g>
    <g style="fill:rgb(0,0,0); fill-opacity:0; font-family:&apos;Serif&apos;; stroke-opacity:0; stroke:rgb(0,0,0);">
      <rect x="163" y="85" width="6" style="stroke:none;" height="12" />
    </g>
    <g style="font-family:&apos;Serif&apos;;">
      <text xml:space="preserve" x="163" y="97" style="stroke:none;">?</text>
    </g>
    <g style="fill:rgb(0,0,0); fill-opacity:0; font-family:&apos;Serif&apos;; stroke-opacity:0; stroke:rgb(0,0,0);">
      <rect x="172" y="60" width="6" style="stroke:none;" height="10" />
    </g>
    <g style="font-family:&apos;Serif&apos;;">
      <text xml:space="preserve" x="172" y="70" style="stroke:none;">6</text>
    </g>
    <g style="fill:rgb(0,0,0); fill-opacity:0; font-family:&apos;Serif&apos;; stroke-opacity:0; stroke:rgb(0,0,0);">
      <rect x="156" y="51" width="6" style="stroke:none;" height="12" />
    </g>
    <g style="font-family:&apos;Serif&apos;;">
      <text xml:space="preserve" x="156" y="63" style="stroke:none;">?</text>
    </g>
    <g style="fill:rgb(0,0,0); fill-opacity:0; font-family:&apos;Serif&apos;; stroke-opacity:0; stroke:rgb(0,0,0);">
      <rect x="233" y="120" width="5" style="stroke:none;" height="10" />
    </g>
    <g style="font-family:&apos;Serif&apos;;">
      <text xml:space="preserve" x="233" y="130" style="stroke:none;">3</text>
    </g>
    <g style="fill:rgb(0,0,0); fill-opacity:0; font-family:&apos;Serif&apos;; stroke-opacity:0; stroke:rgb(0,0,0);">
      <rect x="215" y="134" width="7" style="stroke:none;" height="7" />
    </g>
    <g style="font-family:&apos;Serif&apos;;">
      <text xml:space="preserve" x="215" y="141" style="stroke:none;">?</text>
    </g>
    <g style="fill:rgb(0,0,0); fill-opacity:0; font-family:&apos;Serif&apos;; stroke-opacity:0; stroke:rgb(0,0,0);">
      <rect x="223" y="94" width="6" style="stroke:none;" height="10" />
    </g>
    <g style="font-family:&apos;Serif&apos;;">
      <text xml:space="preserve" x="223" y="104" style="stroke:none;">6</text>
    </g>
    <g style="fill:rgb(0,0,0); fill-opacity:0; font-family:&apos;Serif&apos;; stroke-opacity:0; stroke:rgb(0,0,0);">
      <rect x="206" y="82" width="7" style="stroke:none;" height="7" />
    </g>
    <g style="font-family:&apos;Serif&apos;;">
      <text xml:space="preserve" x="206" y="89" style="stroke:none;">?</text>
    </g>
    <g style="fill:rgb(0,0,0); fill-opacity:0; font-family:&apos;Serif&apos;; stroke-opacity:0; stroke:rgb(0,0,0);">
      <rect x="279" y="109" width="6" style="stroke:none;" height="9" />
    </g>
    <g style="font-family:&apos;Serif&apos;;">
      <text xml:space="preserve" x="279" y="118" style="stroke:none;">4</text>
    </g>
    <g style="fill:rgb(0,0,0); fill-opacity:0; font-family:&apos;Serif&apos;; stroke-opacity:0; stroke:rgb(0,0,0);">
      <rect x="265" y="108" width="6" style="stroke:none;" height="12" />
    </g>
    <g style="font-family:&apos;Serif&apos;;">
      <text xml:space="preserve" x="265" y="120" style="stroke:none;">?</text>
      <polygon style="fill:white; clip-path:url(#clipPath15); stroke:none;" points=" 353 65 342 43 364 43" />
      <rect x="342" y="43" width="22" style="clip-path:url(#clipPath15); fill:rgb(250,0,0); stroke:none;" height="22" />
      <rect x="342" y="43" width="22" style="clip-path:url(#clipPath15); fill:none;" height="22" />
      <polygon style="fill:none;" points=" 353 65 342 43 364 43" />
    </g>
    <g style="fill:rgb(0,0,0); fill-opacity:0; font-family:&apos;Serif&apos;; stroke-opacity:0; stroke:rgb(0,0,0);">
      <rect x="331" y="109" width="6" style="stroke:none;" height="9" />
    </g>
    <g style="font-family:&apos;Serif&apos;;">
      <text xml:space="preserve" x="331" y="118" style="stroke:none;">4</text>
    </g>
    <g style="fill:rgb(0,0,0); fill-opacity:0; font-family:&apos;Serif&apos;; stroke-opacity:0; stroke:rgb(0,0,0);">
      <rect x="317" y="108" width="6" style="stroke:none;" height="12" />
    </g>
    <g style="font-family:&apos;Serif&apos;;">
      <text xml:space="preserve" x="317" y="120" style="stroke:none;">?</text>
    </g>
    <g style="fill:rgb(0,0,0); fill-opacity:0; font-family:&apos;Serif&apos;; stroke-opacity:0; stroke:rgb(0,0,0);">
      <rect x="342" y="82" width="6" style="stroke:none;" height="10" />
    </g>
    <g style="font-family:&apos;Serif&apos;;">
      <text xml:space="preserve" x="342" y="92" style="stroke:none;">6</text>
    </g>
    <g style="fill:rgb(0,0,0); fill-opacity:0; font-family:&apos;Serif&apos;; stroke-opacity:0; stroke:rgb(0,0,0);">
      <rect x="341" y="69" width="7" style="stroke:none;" height="7" />
    </g>
    <g style="font-family:&apos;Serif&apos;;">
      <text xml:space="preserve" x="341" y="76" style="stroke:none;">?</text>
    </g>
    <g style="fill:rgb(0,0,0); fill-opacity:0; font-family:&apos;Serif&apos;; stroke-opacity:0; stroke:rgb(0,0,0);">
      <rect x="369" y="108" width="6" style="stroke:none;" height="12" />
    </g>
    <g style="font-family:&apos;Serif&apos;;">
      <text xml:space="preserve" x="369" y="120" style="stroke:none;">?</text>
    </g>
  </g>
</svg>
