<svg viewbox = "0 0 825 1275" xmlns="http://www.w3.org/2000/svg"><line stroke ="black" x1 = "787.5" y1 = "412.5" x2 = "712.5" y2 = "37.5" nodeIndex="1"></line><text text-anchor = "middle" dominant-baseline = "central" x = "758" y = "217" >a6</text><line stroke ="black" x1 = "787.5" y1 = "412.5" x2 = "712.5" y2 = "787.5" nodeIndex="1"></line><text text-anchor = "middle" dominant-baseline = "central" x = "758" y = "608" >b4</text><line stroke ="black" x1 = "712.5" y1 = "787.5" x2 = "637.5" y2 = "787.5" nodeIndex="1"></line><text text-anchor = "middle" dominant-baseline = "central" x = "675" y = "779.5" >b4</text><line stroke ="black" x1 = "637.5" y1 = "787.5" x2 = "562.5" y2 = "412.5" nodeIndex="1"></line><text text-anchor = "middle" dominant-baseline = "central" x = "608" y = "592" >a6</text><line stroke ="black" x1 = "562.5" y1 = "412.5" x2 = "487.5" y2 = "262.5" nodeIndex="1"></line><text text-anchor = "middle" dominant-baseline = "central" x = "533" y = "329.5" >b6</text><line stroke ="black" x1 = "487.5" y1 = "262.5" x2 = "412.5" y2 = "262.5" nodeIndex="1"></line><text text-anchor = "middle" dominant-baseline = "central" x = "450" y = "254.5" >b4</text><line stroke ="black" x1 = "412.5" y1 = "262.5" x2 = "337.5" y2 = "262.5" nodeIndex="1"></line><text text-anchor = "middle" dominant-baseline = "central" x = "375" y = "254.5" >b3</text><line stroke ="black" x1 = "337.5" y1 = "262.5" x2 = "262.5" y2 = "262.5" nodeIndex="1"></line><text text-anchor = "middle" dominant-baseline = "central" x = "300" y = "254.5" >b4</text><line stroke ="black" x1 = "262.5" y1 = "262.5" x2 = "187.5" y2 = "262.5" nodeIndex="1"></line><text text-anchor = "middle" dominant-baseline = "central" x = "225" y = "254.5" >b3</text><line stroke ="black" x1 = "187.5" y1 = "262.5" x2 = "112.5" y2 = "187.5" nodeIndex="1"></line><text text-anchor = "middle" dominant-baseline = "central" x = "158" y = "217" >b4</text><line stroke ="black" x1 = "112.5" y1 = "187.5" x2 = "37.5" y2 = "187.5" nodeIndex="1"></line><text text-anchor = "middle" dominant-baseline = "central" x = "75" y = "179.5" >a3</text><line stroke ="black" x1 = "187.5" y1 = "262.5" x2 = "112.5" y2 = "337.5" nodeIndex="1"></line><text text-anchor = "middle" dominant-baseline = "central" x = "158" y = "308" >a3</text><line stroke ="black" x1 = "562.5" y1 = "412.5" x2 = "487.5" y2 = "487.5" nodeIndex="1"></line><text text-anchor = "middle" dominant-baseline = "central" x = "533" y = "458" >b2</text><line stroke ="black" x1 = "487.5" y1 = "487.5" x2 = "412.5" y2 = "487.5" nodeIndex="1"></line><text text-anchor = "middle" dominant-baseline = "central" x = "450" y = "479.5" >b4</text><line stroke ="black" x1 = "412.5" y1 = "487.5" x2 = "337.5" y2 = "487.5" nodeIndex="1"></line><text text-anchor = "middle" dominant-baseline = "central" x = "375" y = "479.5" >b3</text><line stroke ="black" x1 = "337.5" y1 = "487.5" x2 = "262.5" y2 = "487.5" nodeIndex="1"></line><text text-anchor = "middle" dominant-baseline = "central" x = "300" y = "479.5" >b4</text><line stroke ="black" x1 = "262.5" y1 = "487.5" x2 = "187.5" y2 = "487.5" nodeIndex="1"></line><text text-anchor = "middle" dominant-baseline = "central" x = "225" y = "479.5" >b3</text><line stroke ="black" x1 = "187.5" y1 = "487.5" x2 = "112.5" y2 = "487.5" nodeIndex="1"></line><text text-anchor = "middle" dominant-baseline = "central" x = "150" y = "479.5" >b4</text><line stroke ="black" x1 = "637.5" y1 = "787.5" x2 = "562.5" y2 = "1162.5" nodeIndex="1"></line><text text-anchor = "middle" dominant-baseline = "central" x = "608" y = "983" >a3</text><line stroke ="black" x1 = "562.5" y1 = "1162.5" x2 = "487.5" y2 = "1012.5" nodeIndex="1"></line><text text-anchor = "middle" dominant-baseline = "central" x = "533" y = "1079.5" >b4</text><line stroke ="black" x1 = "487.5" y1 = "1012.5" x2 = "412.5" y2 = "862.5" nodeIndex="1"></line><text text-anchor = "middle" dominant-baseline = "central" x = "458" y = "929.5" >b4</text><line stroke ="black" x1 = "412.5" y1 = "862.5" x2 = "337.5" y2 = "862.5" nodeIndex="1"></line><text text-anchor = "middle" dominant-baseline = "central" x = "375" y = "854.5" >b3</text><line stroke ="black" x1 = "337.5" y1 = "862.5" x2 = "262.5" y2 = "712.5" nodeIndex="1"></line><text text-anchor = "middle" dominant-baseline = "central" x = "308" y = "779.5" >b4</text><line stroke ="black" x1 = "262.5" y1 = "712.5" x2 = "187.5" y2 = "712.5" nodeIndex="1"></line><text text-anchor = "middle" dominant-baseline = "central" x = "225" y = "704.5" >b3</text><line stroke ="black" x1 = "187.5" y1 = "712.5" x2 = "112.5" y2 = "637.5" nodeIndex="1"></line><text text-anchor = "middle" dominant-baseline = "central" x = "158" y = "667" >b4</text><line stroke ="black" x1 = "187.5" y1 = "712.5" x2 = "112.5" y2 = "787.5" nodeIndex="1"></line><text text-anchor = "middle" dominant-baseline = "central" x = "158" y = "758" >a3</text><line stroke ="black" x1 = "337.5" y1 = "862.5" x2 = "262.5" y2 = "937.5" nodeIndex="1"></line><text text-anchor = "middle" dominant-baseline = "central" x = "308" y = "908" >a3</text><line stroke ="black" x1 = "487.5" y1 = "1012.5" x2 = "412.5" y2 = "1087.5" nodeIndex="1"></line><text text-anchor = "middle" dominant-baseline = "central" x = "458" y = "1058" >a3</text><line stroke ="black" x1 = "562.5" y1 = "1162.5" x2 = "487.5" y2 = "1237.5" nodeIndex="1"></line><text text-anchor = "middle" dominant-baseline = "central" x = "533" y = "1208" >b3</text><line stroke ="black" x1 = "487.5" y1 = "1237.5" x2 = "412.5" y2 = "1237.5" nodeIndex="1"></line><text text-anchor = "middle" dominant-baseline = "central" x = "450" y = "1229.5" >b4</text><line stroke ="black" x1 = "412.5" y1 = "1237.5" x2 = "337.5" y2 = "1237.5" nodeIndex="1"></line><text text-anchor = "middle" dominant-baseline = "central" x = "375" y = "1229.5" >b3</text><line stroke ="black" x1 = "337.5" y1 = "1237.5" x2 = "262.5" y2 = "1237.5" nodeIndex="1"></line><text text-anchor = "middle" dominant-baseline = "central" x = "300" y = "1229.5" >b4</text><line stroke ="black" x1 = "262.5" y1 = "1237.5" x2 = "187.5" y2 = "1237.5" nodeIndex="1"></line><text text-anchor = "middle" dominant-baseline = "central" x = "225" y = "1229.5" >b3</text><line stroke ="black" x1 = "187.5" y1 = "1237.5" x2 = "112.5" y2 = "1237.5" nodeIndex="1"></line><text text-anchor = "middle" dominant-baseline = "central" x = "150" y = "1229.5" >b4</text><line stroke ="black" x1 = "112.5" y1 = "1237.5" x2 = "37.5" y2 = "1237.5" nodeIndex="1"></line><text text-anchor = "middle" dominant-baseline = "central" x = "75" y = "1229.5" >a6</text><rect x = "772.5" y = "397.5" width = "30" height = "30" stroke = "black" stroke-width = "1.5" fill = "rgb(0, 144, 188)"/><polygon points = "712.5,22.5,697.5,52.5,727.5,52.5" stroke = "black" stroke-width = "1.5" fill = "rgb(237, 28, 36)"/><rect x = "697.5" y = "772.5" width = "30" height = "30" stroke = "black" stroke-width = "1.5" fill = "rgb(0, 144, 188)"/><circle cx = "637.5 " cy = " 787.5" r = " 15 " stroke-width = " 1.5 " stroke = "black" fill = " rgb(0, 166, 81) "/><circle cx = "562.5 " cy = " 412.5" r = " 15 " stroke-width = " 1.5 " stroke = "black" fill = " rgb(0, 166, 81) "/><rect x = "472.5" y = "247.5" width = "30" height = "30" stroke = "black" stroke-width = "1.5" fill = "rgb(0, 144, 188)"/><circle cx = "412.5 " cy = " 262.5" r = " 15 " stroke-width = " 1.5 " stroke = "black" fill = " rgb(255, 212, 0) "/><rect x = "322.5" y = "247.5" width = "30" height = "30" stroke = "black" stroke-width = "1.5" fill = "rgb(0, 144, 188)"/><circle cx = "262.5 " cy = " 262.5" r = " 15 " stroke-width = " 1.5 " stroke = "black" fill = " rgb(255, 212, 0) "/><rect x = "172.5" y = "247.5" width = "30" height = "30" stroke = "black" stroke-width = "1.5" fill = "rgb(0, 144, 188)"/><circle cx = "112.5 " cy = " 187.5" r = " 15 " stroke-width = " 1.5 " stroke = "black" fill = " rgb(255, 212, 0) "/><polygon points = "37.5,202.5,52.5,187.5,37.5,172.5,22.5,187.5" stroke = "black" stroke-width = "1.5" fill = "rgb(165, 67, 153)"/><polygon points = "112.5,322.5,97.5,352.5,127.5,352.5" stroke = "black" stroke-width = "1.5" fill = "rgb(237, 28, 36)"/><rect x = "472.5" y = "472.5" width = "30" height = "30" stroke = "black" stroke-width = "1.5" fill = "rgb(0, 144, 188)"/><circle cx = "412.5 " cy = " 487.5" r = " 15 " stroke-width = " 1.5 " stroke = "black" fill = " rgb(255, 212, 0) "/><rect x = "322.5" y = "472.5" width = "30" height = "30" stroke = "black" stroke-width = "1.5" fill = "rgb(0, 144, 188)"/><circle cx = "262.5 " cy = " 487.5" r = " 15 " stroke-width = " 1.5 " stroke = "black" fill = " rgb(255, 212, 0) "/><rect x = "172.5" y = "472.5" width = "30" height = "30" stroke = "black" stroke-width = "1.5" fill = "rgb(0, 144, 188)"/><circle cx = "112.5 " cy = " 487.5" r = " 15 " stroke-width = " 1.5 " stroke = "black" fill = " rgb(255, 212, 0) "/><circle cx = "562.5 " cy = " 1162.5" r = " 15 " stroke-width = " 1.5 " stroke = "black" fill = " rgb(0, 166, 81) "/><rect x = "472.5" y = "997.5" width = "30" height = "30" stroke = "black" stroke-width = "1.5" fill = "rgb(0, 144, 188)"/><circle cx = "412.5 " cy = " 862.5" r = " 15 " stroke-width = " 1.5 " stroke = "black" fill = " rgb(255, 212, 0) "/><rect x = "322.5" y = "847.5" width = "30" height = "30" stroke = "black" stroke-width = "1.5" fill = "rgb(0, 144, 188)"/><circle cx = "262.5 " cy = " 712.5" r = " 15 " stroke-width = " 1.5 " stroke = "black" fill = " rgb(255, 212, 0) "/><rect x = "172.5" y = "697.5" width = "30" height = "30" stroke = "black" stroke-width = "1.5" fill = "rgb(0, 144, 188)"/><circle cx = "112.5 " cy = " 637.5" r = " 15 " stroke-width = " 1.5 " stroke = "black" fill = " rgb(255, 212, 0) "/><polygon points = "112.5,772.5,97.5,802.5,127.5,802.5" stroke = "black" stroke-width = "1.5" fill = "rgb(237, 28, 36)"/><polygon points = "262.5,922.5,247.5,952.5,277.5,952.5" stroke = "black" stroke-width = "1.5" fill = "rgb(237, 28, 36)"/><polygon points = "412.5,1072.5,397.5,1102.5,427.5,1102.5" stroke = "black" stroke-width = "1.5" fill = "rgb(237, 28, 36)"/><rect x = "472.5" y = "1222.5" width = "30" height = "30" stroke = "black" stroke-width = "1.5" fill = "rgb(0, 144, 188)"/><circle cx = "412.5 " cy = " 1237.5" r = " 15 " stroke-width = " 1.5 " stroke = "black" fill = " rgb(255, 212, 0) "/><rect x = "322.5" y = "1222.5" width = "30" height = "30" stroke = "black" stroke-width = "1.5" fill = "rgb(0, 144, 188)"/><circle cx = "262.5 " cy = " 1237.5" r = " 15 " stroke-width = " 1.5 " stroke = "black" fill = " rgb(255, 212, 0) "/><rect x = "172.5" y = "1222.5" width = "30" height = "30" stroke = "black" stroke-width = "1.5" fill = "rgb(0, 144, 188)"/><circle cx = "112.5 " cy = " 1237.5" r = " 15 " stroke-width = " 1.5 " stroke = "black" fill = " rgb(255, 212, 0) "/><polygon points = "37.5,1252.5,52.5,1237.5,37.5,1222.5,22.5,1237.5" stroke = "black" stroke-width = "1.5" fill = "rgb(165, 67, 153)"/></svg>
